<?xml version="1.0" standalone="no"?>
<!DOCTYPE svg PUBLIC "-//W3C//DTD SVG 20010904//EN"
 "http://www.w3.org/TR/2001/REC-SVG-20010904/DTD/svg10.dtd">
<svg version="1.0" xmlns="http://www.w3.org/2000/svg"
 width="225.000000pt" height="225.000000pt" viewBox="0 0 225.000000 225.000000"
 preserveAspectRatio="xMidYMid meet">

<g transform="translate(0.000000,225.000000) scale(0.100000,-0.100000)"
fill="#000000" stroke="none">
<path d="M1755 1889 c-602 -70 -928 -157 -1122 -301 -138 -101 -167 -238 -82
-386 29 -51 160 -192 178 -192 5 0 5 19 -1 42 -39 176 131 394 434 557 31 16
65 35 75 41 96 55 453 189 633 239 l35 9 -40 0 c-22 -1 -71 -4 -110 -9z"/>
<path d="M977 1426 c-64 -32 -92 -59 -123 -122 -69 -142 4 -317 153 -368 58
-20 96 -20 159 -1 152 45 230 229 158 373 -62 125 -222 179 -347 118z"/>
<path d="M1430 1433 c0 -5 7 -30 15 -57 19 -61 19 -108 1 -167 -49 -161 -177
-301 -421 -462 -128 -84 -415 -231 -580 -297 -85 -34 -104 -44 -75 -42 29 2
342 70 435 93 122 31 303 84 340 99 11 4 43 16 70 25 89 31 253 112 326 161
76 52 128 106 162 169 32 59 30 163 -3 229 -32 64 -115 154 -195 211 -64 46
-75 51 -75 38z"/>
</g>
</svg>
